<svg width="424" height="626" viewBox="0 0 424 626" fill="none" xmlns="http://www.w3.org/2000/svg">
<path d="M-99.8893 487.061C65.8472 668.462 251.277 618.005 344.57 531.431C401.13 478.945 423.098 412.098 395.314 340.446C385.537 314.844 371.391 291.373 351.934 273.851C315.53 240.074 247.44 223.508 205.365 253.825C172.266 279.266 191.35 321.039 230.823 321.58C296.326 320.926 346.587 246.959 352.823 186.612C359.227 133.335 331.16 80.653 287.26 51.1677C210.087 -0.31322 95.3123 6.34436 20.3581 62.56C-78.3221 136.583 -67.9746 286.931 82.6118 318.477" stroke="url(#paint0_linear_926_16724)" stroke-opacity="0.4" stroke-width="32" stroke-linecap="round"/>
<defs>
<linearGradient id="paint0_linear_926_16724" x1="92.4845" y1="610.631" x2="33.5814" y2="71.9185" gradientUnits="userSpaceOnUse">
<stop stop-color="#FF85AF" stop-opacity="0.3"/>
<stop offset="1" stop-color="#FFE0EA" stop-opacity="0.2"/>
</linearGradient>
</defs>
</svg>
