<svg width="1440" height="999" viewBox="0 0 1440 999" fill="none" xmlns="http://www.w3.org/2000/svg">
<g clip-path="url(#clip0_901_16903)">
<rect width="1440" height="999" fill="#FFE0EA"/>
<path opacity="0.3" d="M853.297 189.061C851.37 194.817 845.156 197.859 839.466 195.96L808.292 185.555L816.04 201.082C818.733 206.479 816.537 213.037 811.135 215.73C805.727 218.427 799.167 216.224 796.478 210.834L778.982 175.772L735.051 161.107L744.289 206.481L776.968 228.086C782.001 231.414 783.381 238.19 780.049 243.22C776.717 248.251 769.936 249.631 764.903 246.304L750.451 236.75L756.987 268.854C758.191 274.764 754.371 280.531 748.456 281.736C742.541 282.94 736.771 279.125 735.567 273.215L729.031 241.111L719.465 255.555C716.134 260.586 709.353 261.967 704.319 258.639C699.285 255.311 697.906 248.535 701.238 243.505L722.869 210.843L713.631 165.469L678.93 196.142L676.536 235.253C676.169 241.246 671.01 245.859 664.96 245.49C658.935 245.124 654.35 239.947 654.718 233.926L655.778 216.605L631.154 238.371C626.612 242.386 619.706 241.924 615.727 237.428C611.729 232.911 612.153 226.009 616.675 222.012L641.259 200.282L623.994 199.231C617.97 198.865 613.384 193.688 613.753 187.667C614.121 181.646 619.304 177.062 625.329 177.429L664.422 179.807L699.139 149.121L655.188 134.45L620.136 151.924C614.728 154.621 608.168 152.417 605.479 147.027C602.786 141.63 604.982 135.072 610.384 132.379L625.864 124.662L594.741 114.273C589.016 112.362 585.927 106.176 587.84 100.455C589.755 94.7333 595.948 91.6452 601.671 93.5554L632.845 103.961L625.097 88.4338C622.404 83.0369 624.6 76.4784 630.002 73.7855C635.402 71.0912 641.966 73.2845 644.659 78.682L662.155 113.744L706.086 128.408L696.848 83.0344L664.169 61.4296C659.136 58.1017 657.756 51.3261 661.088 46.2957C664.419 41.2654 671.2 39.8842 676.234 43.2121L690.686 52.7661L684.15 20.6619C682.946 14.7515 686.766 8.98429 692.681 7.78001C698.596 6.57574 704.366 10.3906 705.57 16.3009L712.106 48.4051L721.672 33.9607C725.003 28.9298 731.784 27.5492 736.818 30.8771C741.851 34.205 743.231 40.9806 739.899 46.011L718.268 78.6729L727.506 124.047L762.207 93.3742L764.601 54.2627C764.97 48.2423 770.153 43.6581 776.177 44.0253C782.202 44.3919 786.787 49.5691 786.419 55.59L785.359 72.9106L809.983 51.1447C814.504 47.1482 821.412 47.5697 825.41 52.0874C829.408 56.6046 828.984 63.5067 824.462 67.5039L799.878 89.2337L817.143 90.2843C823.167 90.6509 827.753 95.8281 827.384 101.849C827.017 107.842 821.859 112.455 815.808 112.086L776.715 109.709L741.998 140.395L785.949 155.065L821.001 137.592C826.4 134.899 832.965 137.091 835.658 142.489C838.351 147.886 836.155 154.444 830.753 157.137L815.273 164.854L846.396 175.242C852.121 177.153 855.21 183.34 853.297 189.061Z" fill="white"/>
<path opacity="0.3" d="M503.814 721.758C497.45 726.871 488.207 725.795 483.15 719.51L455.442 685.073L452.92 708.274C452.044 716.338 444.791 722.163 436.722 721.282C428.642 720.403 422.821 713.14 423.697 705.086L429.391 652.696L390.346 604.166L367.811 662.221L389.08 710.423C392.356 717.848 388.991 726.517 381.564 729.787C374.137 733.057 365.461 729.689 362.185 722.265L352.779 700.948L336.835 742.025C333.899 749.587 325.385 753.336 317.817 750.398C310.248 747.46 306.493 738.949 309.428 731.387L325.372 690.31L304.047 699.699C296.621 702.97 287.945 699.602 284.668 692.177C281.392 684.752 284.758 676.083 292.184 672.813L340.404 651.583L362.939 593.528L301.377 603.006L270.234 645.518C265.461 652.033 256.271 653.503 249.693 648.686C243.143 643.891 241.719 634.7 246.513 628.155L260.304 609.329L216.619 616.054C208.561 617.295 201.083 611.751 199.849 603.772C198.61 595.754 204.107 588.253 212.13 587.018L255.743 580.304L236.973 566.564C230.422 561.769 228.998 552.578 233.792 546.033C238.585 539.489 247.783 538.07 254.333 542.866L296.837 573.977L358.427 564.495L319.363 515.944L267 510.232C258.92 509.352 253.099 502.089 253.975 494.036C254.852 485.971 262.104 480.147 270.174 481.027L293.299 483.55L265.637 449.169C260.549 442.845 261.552 433.6 267.876 428.517C274.201 423.435 283.453 424.444 288.54 430.766L316.248 465.203L318.77 442.002C319.646 433.937 326.899 428.113 334.968 428.993C343.038 429.871 348.869 437.124 347.993 445.189L342.299 497.58L381.345 546.11L403.879 488.055L382.61 439.852C379.334 432.428 382.699 423.759 390.126 420.489C397.552 417.219 406.229 420.586 409.505 428.011L418.911 449.327L434.856 408.251C437.791 400.689 446.305 396.94 453.873 399.878C461.442 402.815 465.197 411.327 462.262 418.889L446.318 459.965L467.643 450.577C475.069 447.306 483.746 450.674 487.022 458.099C490.297 465.523 486.932 474.193 479.506 477.462L431.286 498.692L408.751 556.747L470.313 547.27L501.457 504.757C506.251 498.213 515.448 496.795 521.997 501.59C528.547 506.384 529.972 515.576 525.177 522.12L511.386 540.947L555.071 534.221C563.092 532.986 570.601 538.485 571.841 546.504C573.08 554.521 567.583 562.022 559.56 563.257L515.947 569.972L534.718 583.712C541.268 588.506 542.692 597.698 537.898 604.242C533.126 610.757 523.936 612.226 517.358 607.41L474.853 576.299L413.263 585.78L452.327 634.332L504.69 640.044C512.758 640.922 518.592 648.175 517.715 656.24C516.838 664.304 509.586 670.128 501.516 669.248L478.391 666.726L506.053 701.106C511.142 707.43 510.139 716.676 503.814 721.758Z" fill="white"/>
<g opacity="0.15" filter="url(#filter0_f_901_16903)">
<ellipse cx="186.44" cy="170.812" rx="544.027" ry="390.78" transform="rotate(-9.57312 186.44 170.812)" fill="url(#paint0_radial_901_16903)"/>
</g>
<g opacity="0.15" filter="url(#filter1_f_901_16903)">
<ellipse cx="1302.44" cy="926.812" rx="544.027" ry="390.78" transform="rotate(-9.57312 1302.44 926.812)" fill="url(#paint1_radial_901_16903)"/>
</g>
<path d="M1600.94 175.717C1624.23 359.758 1547.87 398.063 1522.71 401.245C1388.82 418.188 1356.57 77.4777 1458.22 93.7137C1528.03 104.864 1495.12 264.358 1379.57 219.195C1314.08 193.605 1291.92 67.411 1289.15 36.9928" stroke="url(#paint2_linear_901_16903)" stroke-opacity="0.8" stroke-width="32"/>
</g>
<defs>
<filter id="filter0_f_901_16903" x="-753.988" y="-625.094" width="1880.86" height="1591.81" filterUnits="userSpaceOnUse" color-interpolation-filters="sRGB">
<feFlood flood-opacity="0" result="BackgroundImageFix"/>
<feBlend mode="normal" in="SourceGraphic" in2="BackgroundImageFix" result="shape"/>
<feGaussianBlur stdDeviation="200" result="effect1_foregroundBlur_901_16903"/>
</filter>
<filter id="filter1_f_901_16903" x="362.012" y="130.906" width="1880.86" height="1591.81" filterUnits="userSpaceOnUse" color-interpolation-filters="sRGB">
<feFlood flood-opacity="0" result="BackgroundImageFix"/>
<feBlend mode="normal" in="SourceGraphic" in2="BackgroundImageFix" result="shape"/>
<feGaussianBlur stdDeviation="200" result="effect1_foregroundBlur_901_16903"/>
</filter>
<radialGradient id="paint0_radial_901_16903" cx="0" cy="0" r="1" gradientUnits="userSpaceOnUse" gradientTransform="translate(186.44 170.812) rotate(90) scale(390.78 544.027)">
<stop stop-color="#FF00BB"/>
<stop offset="1" stop-color="#FF00BB" stop-opacity="0"/>
</radialGradient>
<radialGradient id="paint1_radial_901_16903" cx="0" cy="0" r="1" gradientUnits="userSpaceOnUse" gradientTransform="translate(1302.44 926.812) rotate(90) scale(390.78 544.027)">
<stop stop-color="#FF0000"/>
<stop offset="1" stop-color="#FF0000" stop-opacity="0"/>
</radialGradient>
<linearGradient id="paint2_linear_901_16903" x1="1593.19" y1="357.521" x2="1286.61" y2="71.3116" gradientUnits="userSpaceOnUse">
<stop stop-color="white" stop-opacity="0.4"/>
<stop offset="0.329749" stop-color="white" stop-opacity="0.7"/>
<stop offset="0.723357" stop-color="white" stop-opacity="0.7"/>
<stop offset="1" stop-color="white" stop-opacity="0.4"/>
</linearGradient>
<clipPath id="clip0_901_16903">
<rect width="1440" height="999" fill="white"/>
</clipPath>
</defs>
</svg>
