<svg width="122" height="48" viewBox="0 0 122 48" fill="none" xmlns="http://www.w3.org/2000/svg">
<g clip-path="url(#clip0_412_10808)">
<path d="M64.9271 23.0042H61.5462L61.4008 21.1247H57.7656L56.8931 23.0042H53.2578L59.5468 11.4834H63.1821L64.9271 23.0042ZM61.1645 18.6815L60.9283 14.4717L59.0197 18.6815H61.1645Z" fill="#272727"/>
<path d="M78.4153 11.4834L76.0342 23.0042H72.7988L70.0178 16.3135L68.6364 23.0042H65.3828L67.7821 11.4834H70.9993L73.744 18.1929L75.1435 11.4834H78.4153Z" fill="#272727"/>
<path d="M89.7359 11.4834L89.1542 14.3025H85.519L83.7013 23.0042H80.2478L82.0654 14.3025H78.5938L79.1754 11.4834H89.7359Z" fill="#272727"/>
<path d="M94.0806 11.4834L91.6995 23.0042H88.1914L90.5725 11.4834H94.0806Z" fill="#272727"/>
<path d="M65.1275 30.7096L61.9103 30.8788C61.915 30.6636 61.8743 30.4499 61.7912 30.2525C61.708 30.0551 61.5843 29.8788 61.4287 29.7358C61.2731 29.5928 61.0892 29.4864 60.8899 29.4242C60.6906 29.3619 60.4806 29.3452 60.2744 29.3753C59.9376 29.3559 59.6044 29.4553 59.3293 29.6572C59.2294 29.729 59.1477 29.8245 59.0908 29.9357C59.0338 30.0468 59.0034 30.1704 59.0021 30.2962C59.0081 30.399 59.0356 30.4993 59.0827 30.5902C59.1297 30.681 59.1952 30.7602 59.2747 30.8224C59.6606 31.0971 60.0831 31.3124 60.5289 31.4614C61.2299 31.7349 61.9156 32.0487 62.5828 32.4011C63.0914 32.6855 63.5323 33.0836 63.8734 33.5663C64.2273 34.0879 64.4061 34.7151 64.3823 35.3518C64.3841 36.0202 64.1943 36.6742 63.837 37.2312C63.4416 37.8368 62.9037 38.3283 62.2738 38.6595C61.3612 39.0826 60.3645 39.2758 59.3656 39.2233C58.0299 39.3516 56.6941 38.9779 55.6031 38.1709C55.2384 37.8309 54.9501 37.4124 54.7585 36.9448C54.567 36.4773 54.4768 35.972 54.4943 35.4645V35.2014L57.7297 34.9759C57.7023 35.2482 57.7283 35.5235 57.8064 35.7851C57.8845 36.0467 58.013 36.2893 58.1841 36.4982C58.5396 36.8045 58.9946 36.9591 59.4565 36.9305C59.9018 36.9638 60.3446 36.8377 60.7107 36.5734C60.8419 36.4771 60.9496 36.3506 61.0254 36.2038C61.1011 36.057 61.1427 35.894 61.1469 35.7277C61.1435 35.4798 61.0455 35.2434 60.8742 35.0699C60.4702 34.7559 60.0145 34.5203 59.5292 34.3745C58.3843 34.057 57.3224 33.4791 56.421 32.683C55.9775 32.1667 55.7432 31.4937 55.7667 30.8036C55.7469 30.1326 55.9383 29.4731 56.312 28.9242C56.6938 28.35 57.2313 27.9054 57.857 27.6462C58.6376 27.3281 59.4719 27.1747 60.3108 27.1952C63.3281 27.3831 64.9276 28.5107 65.1275 30.7096Z" fill="#272727"/>
<path d="M76.4685 31.3674L73.3058 31.7245C73.3224 31.4898 73.2868 31.2543 73.2017 31.0361C73.1167 30.8178 72.9844 30.6225 72.815 30.4653C72.5124 30.2095 72.1335 30.0701 71.7426 30.0707C71.1994 30.0841 70.6755 30.2823 70.2521 30.6345C69.7254 31.1077 69.3301 31.7175 69.107 32.4011C68.826 33.1376 68.6781 33.9211 68.6708 34.7128C68.6533 35.2324 68.8072 35.7426 69.107 36.1599C69.2695 36.3505 69.4717 36.5003 69.6985 36.598C69.9252 36.6957 70.1705 36.7387 70.4157 36.7238C70.9102 36.7376 71.3912 36.5562 71.7608 36.2163C72.1831 35.7602 72.5055 35.2153 72.706 34.6188L75.9232 35.1263C75.5991 36.3114 74.9256 37.3626 73.9965 38.1333C72.9196 38.984 71.5879 39.4164 70.234 39.3549C69.5724 39.3968 68.9094 39.3003 68.2848 39.071C67.6601 38.8417 67.0866 38.4844 66.5987 38.0205C66.1648 37.5524 65.8282 36.9975 65.6094 36.3899C65.3905 35.7823 65.2942 35.1348 65.3263 34.4873C65.3317 33.3107 65.5861 32.1496 66.0716 31.0855C66.5081 29.982 67.2473 29.0347 68.1982 28.3604C69.2356 27.6848 70.4444 27.3445 71.6699 27.3831C72.8704 27.3129 74.054 27.7008 74.9962 28.4732C75.8377 29.1987 76.3671 30.2394 76.4685 31.3674Z" fill="#272727"/>
<path d="M88.9178 27.5713L86.5367 39.1108H83.065L84.0466 34.4123H80.3022L79.3571 39.1108H75.8672L78.2665 27.5713H81.72L80.9202 31.6496H84.5555L85.428 27.5713H88.9178Z" fill="#272727"/>
<path d="M95.4635 27.3826C96.1492 27.3228 96.8392 27.4178 97.4858 27.6612C98.1323 27.9046 98.72 28.2905 99.2079 28.7922C100.002 29.7617 100.422 30.9994 100.389 32.2691C100.385 32.902 100.312 33.5325 100.171 34.1485C100.006 34.8958 99.7169 35.6079 99.3169 36.2534C98.9103 36.9955 98.3521 37.6368 97.6811 38.1328C97.1051 38.5916 96.4518 38.9357 95.7544 39.1477C95.1156 39.3322 94.4545 39.4208 93.7913 39.4108C92.4744 39.4652 91.183 39.0246 90.156 38.1704C89.7003 37.7193 89.3442 37.1718 89.112 36.5652C88.8799 35.9586 88.7772 35.3073 88.811 34.6559C88.8087 33.879 88.919 33.1062 89.1382 32.3631C89.3557 31.6029 89.6935 30.8853 90.1379 30.2393C90.5631 29.5804 91.1135 29.0177 91.7556 28.5855C92.3011 28.1733 92.9182 27.8734 93.5732 27.7021C94.1912 27.5296 94.8246 27.4225 95.4635 27.3826ZM93.9913 36.6669C94.3106 36.6755 94.6277 36.6108 94.92 36.4776C95.2123 36.3444 95.4724 36.1459 95.6817 35.8963C96.1582 35.3606 96.5068 34.717 96.6995 34.0169C96.8741 33.4688 96.984 32.9009 97.0267 32.3255C97.0482 32.0232 97.0111 31.7195 96.9174 31.4322C96.8238 31.145 96.6755 30.88 96.4814 30.6528C96.3005 30.4611 96.082 30.3117 95.8406 30.2144C95.5992 30.1172 95.3405 30.0744 95.0818 30.089C94.7789 30.0842 94.4783 30.1453 94.1996 30.2684C93.9209 30.3914 93.6704 30.5736 93.4641 30.8032C92.9743 31.3288 92.6237 31.9761 92.4463 32.6826C92.2348 33.3378 92.1184 34.0218 92.1009 34.7123C92.0896 34.9763 92.1288 35.2399 92.2161 35.4883C92.3034 35.7366 92.4372 35.9646 92.6099 36.1595C92.7997 36.346 93.0263 36.488 93.2742 36.5755C93.522 36.6631 93.7852 36.6943 94.0458 36.6669H93.9913Z" fill="#272727"/>
<path d="M107.713 27.3829C108.381 27.3346 109.052 27.4354 109.679 27.6786C110.306 27.9218 110.876 28.3017 111.348 28.7924C112.155 29.7555 112.583 30.996 112.548 32.2693C112.544 32.9023 112.471 33.5327 112.33 34.1487C112.157 34.8934 111.868 35.6042 111.476 36.2536C111.069 36.9957 110.511 37.637 109.84 38.1331C109.264 38.5918 108.61 38.9359 107.913 39.1479C107.268 39.3312 106.601 39.4197 105.932 39.411C104.615 39.4654 103.323 39.0248 102.296 38.1706C101.808 37.7033 101.43 37.1267 101.191 36.4849C100.951 35.8432 100.857 35.1534 100.915 34.4682C100.913 33.6913 101.023 32.9185 101.242 32.1753C101.461 31.4191 101.792 30.7026 102.224 30.0516C102.654 29.3968 103.203 28.8351 103.841 28.3977C104.389 27.9895 105.006 27.6899 105.659 27.5144C106.337 27.3958 107.026 27.3517 107.713 27.3829ZM106.241 36.6671C106.559 36.6719 106.876 36.6055 107.167 36.4725C107.459 36.3395 107.72 36.1431 107.931 35.8966C108.401 35.3562 108.749 34.7141 108.949 34.0172C109.12 33.4689 109.224 32.9007 109.258 32.3257C109.28 32.0234 109.242 31.7197 109.149 31.4324C109.055 31.1452 108.907 30.8802 108.713 30.653C108.534 30.4638 108.318 30.3157 108.08 30.2186C107.842 30.1214 107.587 30.0773 107.331 30.0892C107.028 30.0844 106.728 30.1455 106.449 30.2686C106.17 30.3916 105.92 30.5738 105.714 30.8034C105.224 31.329 104.873 31.9763 104.696 32.6828C104.484 33.338 104.368 34.022 104.35 34.7125C104.33 35.2418 104.506 35.7592 104.841 36.1597C105.027 36.3412 105.247 36.4803 105.489 36.5677C105.73 36.6551 105.986 36.689 106.241 36.6671Z" fill="#272727"/>
<path d="M121.998 36.3474L121.417 39.1665H112.438L114.8 27.627H118.272L116.454 36.3474H121.998Z" fill="#272727"/>
<path d="M23.2113 48C36.0305 48 46.4225 37.2548 46.4225 24C46.4225 10.7452 36.0305 0 23.2113 0C10.392 0 0 10.7452 0 24C0 37.2548 10.392 48 23.2113 48Z" fill="#272727"/>
<path d="M28.845 28.8301L34.298 38.509C33.6073 38.509 32.9893 38.509 32.3713 38.509C32.2258 38.509 32.0804 38.2835 31.9896 38.1332L28.2089 31.4237C27.7908 30.6907 27.3727 29.9578 26.9729 29.206C26.9352 29.0819 26.8559 28.9758 26.7493 28.9068C26.6426 28.8379 26.5156 28.8107 26.3912 28.8301H22.9741L24.101 27.0635C24.101 27.0635 24.3191 26.9695 24.4282 26.9695H25.6823C25.4848 26.5472 25.2602 26.1391 25.0098 25.7479C24.9075 25.6362 24.8506 25.4882 24.8506 25.3344C24.8506 25.1806 24.9075 25.0326 25.0098 24.9209C25.3188 24.5075 25.5551 24.0564 25.8641 23.5678C26.3549 24.4511 26.8638 25.2592 27.2637 26.105C27.3659 26.4022 27.5654 26.6531 27.8276 26.8144C28.0898 26.9757 28.3982 27.0372 28.6996 26.9883C30.2991 26.9883 31.8987 26.9883 33.48 26.9883C34.2616 26.9883 34.3343 26.9883 34.6069 26.0862L25.1916 20.448L24.5372 21.632L15.4854 38.2271C15.4423 38.3307 15.3671 38.4164 15.2717 38.4709C15.1762 38.5253 15.0659 38.5454 14.9583 38.5278C14.413 38.5278 13.8677 38.5278 13.1406 38.5278L23.6466 19.621L13.9222 13.7949L17.7029 6.89746L19.3206 7.83716L17.503 11.2765C17.2303 11.7651 16.9577 12.235 16.7214 12.7236C16.7214 12.7236 16.7214 13.0431 16.7214 13.0807L18.23 13.9828L20.1385 10.5247L21.7381 11.4456L19.9204 14.9413L21.4472 15.8434L36.8608 25.0713C37.1698 25.2592 37.2425 25.3908 37.0426 25.7291C36.5155 26.65 36.0065 27.6085 35.4976 28.5482C35.4527 28.6515 35.3778 28.7377 35.2834 28.795C35.1889 28.8522 35.0796 28.8776 34.9705 28.8677H28.845V28.8301Z" fill="#FDFDFD"/>
</g>
<defs>
<clipPath id="clip0_412_10808">
<rect width="122" height="48" fill="white"/>
</clipPath>
</defs>
</svg>
