<svg width="374" height="354" viewBox="0 0 374 354" fill="none" xmlns="http://www.w3.org/2000/svg">
<path opacity="0.1" d="M68.8731 323.586C75.2372 328.699 84.4803 327.623 89.5377 321.338L117.245 286.901L119.767 310.102C120.643 318.167 127.896 323.991 135.966 323.111C144.045 322.231 149.866 314.968 148.99 306.915L143.296 254.524L182.342 205.994L204.876 264.049L183.607 312.252C180.332 319.676 183.697 328.345 191.123 331.615C198.551 334.885 207.227 331.517 210.502 324.093L219.909 302.776L235.853 343.853C238.788 351.415 247.303 355.164 254.871 352.226C262.439 349.288 266.195 340.777 263.259 333.215L247.315 292.138L268.64 301.527C276.067 304.798 284.743 301.43 288.019 294.005C291.295 286.58 287.93 277.911 280.503 274.642L232.283 253.411L209.749 195.356L271.31 204.834L302.454 247.347C307.226 253.861 316.416 255.331 322.994 250.514C329.545 245.719 330.969 236.528 326.175 229.984L312.383 211.157L356.068 217.882C364.126 219.123 371.605 213.579 372.838 205.6C374.078 197.583 368.58 190.081 360.558 188.846L316.944 182.132L335.715 168.392C342.265 163.597 343.69 154.406 338.895 147.862C334.102 141.317 324.905 139.899 318.355 144.694L275.851 175.805L214.261 166.323L253.325 117.772L305.688 112.06C313.767 111.18 319.588 103.918 318.712 95.864C317.836 87.7996 310.583 81.9754 302.513 82.8555L279.388 85.3777L307.051 50.9974C312.138 44.6733 311.136 35.4282 304.812 30.3456C298.486 25.2636 289.234 26.2718 284.147 32.594L256.44 67.0312L253.918 43.8299C253.042 35.7654 245.789 29.9413 237.719 30.8214C229.65 31.699 223.818 38.9522 224.695 47.0174L230.389 99.4083L191.343 147.938L168.809 89.8833L190.078 41.6804C193.353 34.2559 189.988 25.5866 182.562 22.3169C175.135 19.0472 166.459 22.4142 163.182 29.839L153.776 51.1556L137.832 10.079C134.897 2.51679 126.382 -1.23189 118.814 1.70579C111.246 4.64347 107.49 13.1548 110.426 20.717L126.37 61.7936L105.045 52.4047C97.6181 49.1343 88.9419 52.502 85.6658 59.9268C82.3903 67.3514 85.7553 76.0206 93.1819 79.2904L141.402 100.521L163.936 158.576L102.374 149.098L71.231 106.585C66.437 100.042 57.2399 98.6226 50.6906 103.418C44.1404 108.212 42.716 117.404 47.5103 123.948L61.3018 142.775L17.6168 136.05C9.59565 134.815 2.08637 140.313 0.846846 148.332C-0.392971 156.349 5.10459 163.85 13.1273 165.086L56.7408 171.8L37.9699 185.54C31.4197 190.335 29.9953 199.526 34.7896 206.07C39.5619 212.585 48.7519 214.055 55.3299 209.238L97.8342 178.127L159.424 187.608L120.36 236.16L67.997 241.872C59.9298 242.75 54.0956 250.003 54.9727 258.068C55.849 266.132 63.1018 271.957 71.1715 271.076L94.2968 268.554L66.6344 302.935C61.5456 309.258 62.5485 318.504 68.8731 323.586Z" fill="url(#paint0_linear_901_18738)"/>
<defs>
<linearGradient id="paint0_linear_901_18738" x1="118.814" y1="1.70579" x2="254.871" y2="352.226" gradientUnits="userSpaceOnUse">
<stop stop-color="#FE3E1F"/>
<stop offset="1" stop-color="#FFDBD6"/>
</linearGradient>
</defs>
</svg>
