<svg width="1440" height="840" viewBox="0 0 1440 840" fill="none" xmlns="http://www.w3.org/2000/svg">
<g clip-path="url(#clip0_901_18346)">
<rect width="1440" height="840" fill="#FFE0EA"/>
<path opacity="0.3" d="M1413.81 356.586C1407.45 361.699 1398.21 360.623 1393.15 354.338L1365.44 319.901L1362.92 343.102C1362.04 351.167 1354.79 356.991 1346.72 356.111C1338.64 355.231 1332.82 347.968 1333.7 339.915L1339.39 287.524L1300.35 238.994L1277.81 297.049L1299.08 345.252C1302.36 352.676 1298.99 361.345 1291.56 364.615C1284.14 367.885 1275.46 364.517 1272.19 357.093L1262.78 335.776L1246.83 376.853C1243.9 384.415 1235.38 388.164 1227.82 385.226C1220.25 382.288 1216.49 373.777 1219.43 366.215L1235.37 325.138L1214.05 334.527C1206.62 337.798 1197.94 334.43 1194.67 327.005C1191.39 319.58 1194.76 310.911 1202.18 307.642L1250.4 286.411L1272.94 228.356L1211.38 237.834L1180.23 280.347C1175.46 286.861 1166.27 288.331 1159.69 283.514C1153.14 278.719 1151.72 269.528 1156.51 262.984L1170.3 244.157L1126.62 250.882C1118.56 252.123 1111.08 246.579 1109.85 238.6C1108.61 230.583 1114.11 223.081 1122.13 221.846L1165.74 215.132L1146.97 201.392C1140.42 196.597 1139 187.406 1143.79 180.862C1148.59 174.317 1157.78 172.899 1164.33 177.694L1206.84 208.805L1268.43 199.323L1229.36 150.772L1177 145.06C1168.92 144.18 1163.1 136.918 1163.98 128.864C1164.85 120.8 1172.1 114.975 1180.17 115.856L1203.3 118.378L1175.64 83.9974C1170.55 77.6733 1171.55 68.4282 1177.88 63.3456C1184.2 58.2636 1193.45 59.2718 1198.54 65.594L1226.25 100.031L1228.77 76.8299C1229.65 68.7654 1236.9 62.9413 1244.97 63.8214C1253.04 64.699 1258.87 71.9522 1257.99 80.0174L1252.3 132.408L1291.34 180.938L1313.88 122.883L1292.61 74.6804C1289.33 67.2559 1292.7 58.5866 1300.13 55.3169C1307.55 52.0472 1316.23 55.4142 1319.51 62.839L1328.91 84.1556L1344.86 43.079C1347.79 35.5168 1356.31 31.7681 1363.87 34.7058C1371.44 37.6435 1375.2 46.1548 1372.26 53.717L1356.32 94.7936L1377.64 85.4047C1385.07 82.1343 1393.75 85.502 1397.02 92.9268C1400.3 100.351 1396.93 109.021 1389.51 112.29L1341.29 133.521L1318.75 191.576L1380.31 182.098L1411.46 139.585C1416.25 133.042 1425.45 131.623 1432 136.418C1438.55 141.212 1439.97 150.404 1435.18 156.948L1421.39 175.775L1465.07 169.05C1473.09 167.815 1480.6 173.313 1481.84 181.332C1483.08 189.349 1477.58 196.85 1469.56 198.086L1425.95 204.8L1444.72 218.54C1451.27 223.335 1452.69 232.526 1447.9 239.07C1443.13 245.585 1433.94 247.055 1427.36 242.238L1384.85 211.127L1323.26 220.608L1362.33 269.16L1414.69 274.872C1422.76 275.75 1428.59 283.003 1427.71 291.068C1426.84 299.132 1419.59 304.957 1411.52 304.076L1388.39 301.554L1416.05 335.935C1421.14 342.258 1420.14 351.504 1413.81 356.586Z" fill="white"/>
<g opacity="0.15" filter="url(#filter0_f_901_18346)">
<ellipse cx="186.44" cy="170.812" rx="544.027" ry="390.78" transform="rotate(-9.57312 186.44 170.812)" fill="url(#paint0_radial_901_18346)"/>
</g>
<g opacity="0.15" filter="url(#filter1_f_901_18346)">
<ellipse cx="1302.44" cy="926.812" rx="544.027" ry="390.78" transform="rotate(-9.57312 1302.44 926.812)" fill="url(#paint1_radial_901_18346)"/>
</g>
</g>
<defs>
<filter id="filter0_f_901_18346" x="-753.988" y="-625.094" width="1880.86" height="1591.81" filterUnits="userSpaceOnUse" color-interpolation-filters="sRGB">
<feFlood flood-opacity="0" result="BackgroundImageFix"/>
<feBlend mode="normal" in="SourceGraphic" in2="BackgroundImageFix" result="shape"/>
<feGaussianBlur stdDeviation="200" result="effect1_foregroundBlur_901_18346"/>
</filter>
<filter id="filter1_f_901_18346" x="362.012" y="130.906" width="1880.86" height="1591.81" filterUnits="userSpaceOnUse" color-interpolation-filters="sRGB">
<feFlood flood-opacity="0" result="BackgroundImageFix"/>
<feBlend mode="normal" in="SourceGraphic" in2="BackgroundImageFix" result="shape"/>
<feGaussianBlur stdDeviation="200" result="effect1_foregroundBlur_901_18346"/>
</filter>
<radialGradient id="paint0_radial_901_18346" cx="0" cy="0" r="1" gradientUnits="userSpaceOnUse" gradientTransform="translate(186.44 170.812) rotate(90) scale(390.78 544.027)">
<stop stop-color="#FF00BB"/>
<stop offset="1" stop-color="#FF00BB" stop-opacity="0"/>
</radialGradient>
<radialGradient id="paint1_radial_901_18346" cx="0" cy="0" r="1" gradientUnits="userSpaceOnUse" gradientTransform="translate(1302.44 926.812) rotate(90) scale(390.78 544.027)">
<stop stop-color="#FF0000"/>
<stop offset="1" stop-color="#FF0000" stop-opacity="0"/>
</radialGradient>
<clipPath id="clip0_901_18346">
<rect width="1440" height="840" fill="white"/>
</clipPath>
</defs>
</svg>
