<svg width="1440" height="886" viewBox="0 0 1440 886" fill="none" xmlns="http://www.w3.org/2000/svg">
<g clip-path="url(#clip0_901_18739)">
<rect width="1440" height="886" fill="#FFE0EA"/>
<path opacity="0.3" d="M698.626 837.968C693.155 844.027 683.859 844.434 677.867 839.033L645.037 809.438L646.235 832.745C646.652 840.847 640.418 847.75 632.311 848.163C624.194 848.579 617.293 842.334 616.877 834.244L614.17 781.614L567.906 739.908L554.887 800.807L583.549 845.016C587.963 851.826 586.019 860.919 579.206 865.328C572.393 869.737 563.292 867.791 558.878 860.982L546.203 841.432L536.991 884.521C535.295 892.454 527.485 897.508 519.546 895.811C511.607 894.114 506.546 886.308 508.242 878.375L517.454 835.286L497.892 847.946C491.08 852.355 481.979 850.409 477.564 843.6C473.149 836.79 475.094 827.696 481.906 823.288L526.138 794.662L539.157 733.763L479.885 752.907L455.895 799.829C452.219 807.019 443.38 809.931 436.12 806.222C428.891 802.529 426.023 793.681 429.716 786.458L440.34 765.678L398.279 779.263C390.521 781.768 382.256 777.484 379.77 769.803C377.271 762.084 381.507 753.804 389.231 751.31L431.223 737.748L410.506 727.166C403.277 723.474 400.41 714.626 404.102 707.402C407.795 700.18 416.649 697.317 423.878 701.01L470.788 724.969L530.087 705.817L483.802 664.093L431.196 666.777C423.08 667.193 416.178 660.948 415.763 652.858C415.346 644.756 421.581 637.853 429.688 637.439L452.92 636.253L420.144 606.708C414.116 601.273 413.636 591.986 419.071 585.963C424.508 579.94 433.803 579.464 439.83 584.897L472.66 614.492L471.462 591.185C471.045 583.084 477.279 576.181 485.386 575.767C493.492 575.35 500.403 581.584 500.82 589.686L503.527 642.316L549.791 684.022L562.81 623.123L534.148 578.914C529.734 572.105 531.678 563.011 538.491 558.602C545.303 554.193 554.404 556.138 558.819 562.948L571.494 582.498L580.706 539.409C582.402 531.477 590.212 526.422 598.151 528.119C606.09 529.816 611.151 537.622 609.455 545.555L600.243 588.644L619.805 575.985C626.617 571.575 635.718 573.521 640.133 580.33C644.547 587.14 642.603 596.234 635.791 600.642L591.559 629.268L578.54 690.167L637.812 671.024L661.801 624.101C665.494 616.878 674.349 614.015 681.577 617.708C688.806 621.401 691.674 630.249 687.981 637.472L677.357 658.252L719.418 644.667C727.141 642.173 735.429 646.408 737.927 654.127C740.426 661.846 736.19 670.126 728.466 672.621L686.474 686.182L707.191 696.764C714.42 700.456 717.287 709.304 713.595 716.528C709.918 723.718 701.079 726.63 693.819 722.92L646.909 698.962L587.61 718.114L633.895 759.838L686.501 757.153C694.605 756.738 701.518 762.971 701.934 771.073C702.351 779.174 696.116 786.077 688.009 786.491L664.777 787.677L697.553 817.223C703.582 822.657 704.062 831.944 698.626 837.968Z" fill="white"/>
<g opacity="0.15" filter="url(#filter0_f_901_18739)">
<ellipse cx="186.44" cy="170.812" rx="544.027" ry="390.78" transform="rotate(-9.57312 186.44 170.812)" fill="url(#paint0_radial_901_18739)"/>
</g>
<g opacity="0.15" filter="url(#filter1_f_901_18739)">
<ellipse cx="1302.44" cy="926.812" rx="544.027" ry="390.78" transform="rotate(-9.57312 1302.44 926.812)" fill="url(#paint1_radial_901_18739)"/>
</g>
<path d="M1460.94 105.717C1484.23 289.758 1407.87 328.063 1382.71 331.245C1248.82 348.188 1216.57 7.47771 1318.22 23.7137C1388.03 34.8643 1355.12 194.358 1239.57 149.195C1174.08 123.605 1151.92 -2.58901 1149.15 -33.0072" stroke="url(#paint2_linear_901_18739)" stroke-opacity="0.8" stroke-width="32"/>
</g>
<defs>
<filter id="filter0_f_901_18739" x="-753.988" y="-625.094" width="1880.86" height="1591.81" filterUnits="userSpaceOnUse" color-interpolation-filters="sRGB">
<feFlood flood-opacity="0" result="BackgroundImageFix"/>
<feBlend mode="normal" in="SourceGraphic" in2="BackgroundImageFix" result="shape"/>
<feGaussianBlur stdDeviation="200" result="effect1_foregroundBlur_901_18739"/>
</filter>
<filter id="filter1_f_901_18739" x="362.012" y="130.906" width="1880.86" height="1591.81" filterUnits="userSpaceOnUse" color-interpolation-filters="sRGB">
<feFlood flood-opacity="0" result="BackgroundImageFix"/>
<feBlend mode="normal" in="SourceGraphic" in2="BackgroundImageFix" result="shape"/>
<feGaussianBlur stdDeviation="200" result="effect1_foregroundBlur_901_18739"/>
</filter>
<radialGradient id="paint0_radial_901_18739" cx="0" cy="0" r="1" gradientUnits="userSpaceOnUse" gradientTransform="translate(186.44 170.812) rotate(90) scale(390.78 544.027)">
<stop stop-color="#FF00BB"/>
<stop offset="1" stop-color="#FF00BB" stop-opacity="0"/>
</radialGradient>
<radialGradient id="paint1_radial_901_18739" cx="0" cy="0" r="1" gradientUnits="userSpaceOnUse" gradientTransform="translate(1302.44 926.812) rotate(90) scale(390.78 544.027)">
<stop stop-color="#FF0000"/>
<stop offset="1" stop-color="#FF0000" stop-opacity="0"/>
</radialGradient>
<linearGradient id="paint2_linear_901_18739" x1="1453.19" y1="287.521" x2="1146.61" y2="1.31159" gradientUnits="userSpaceOnUse">
<stop stop-color="white" stop-opacity="0.4"/>
<stop offset="0.329749" stop-color="white" stop-opacity="0.7"/>
<stop offset="0.723357" stop-color="white" stop-opacity="0.7"/>
<stop offset="1" stop-color="white" stop-opacity="0.4"/>
</linearGradient>
<clipPath id="clip0_901_18739">
<rect width="1440" height="886" fill="white"/>
</clipPath>
</defs>
</svg>
