<svg width="419" height="544" viewBox="0 0 419 544" fill="none" xmlns="http://www.w3.org/2000/svg">
<path d="M474.638 527.054C663.908 370.364 622.556 182.694 540.637 85.289C490.972 26.2358 425.276 1.03293 352.354 25.2882C326.306 33.8044 302.173 46.7889 283.723 65.3678C248.209 100.081 228.342 167.282 256.571 210.785C280.366 245.086 323.021 228.063 325.487 188.663C328.029 123.206 256.601 69.3964 196.631 60.2243C143.729 51.2292 89.741 76.6931 58.1492 119.103C2.96506 193.672 4.0158 308.635 56.5082 386.242C125.629 488.416 276.303 485.415 315.157 336.547" stroke="url(#paint0_linear_901_18398)" stroke-opacity="0.6" stroke-width="32" stroke-linecap="round"/>
<defs>
<linearGradient id="paint0_linear_901_18398" x1="607.445" y1="340.937" x2="66.5005" y2="373.491" gradientUnits="userSpaceOnUse">
<stop stop-color="#FFE0EA" stop-opacity="0.2"/>
<stop offset="1" stop-color="#FF85AF" stop-opacity="0.3"/>
</linearGradient>
</defs>
</svg>
